<svg xmlns="http://www.w3.org/2000/svg" width="145.417" height="45.89" viewBox="0 0 145.417 45.89">
  <g id="Logo" transform="translate(-354.667 -189.667)">
    <g id="Group_902" data-name="Group 902" transform="translate(354.667 189.667)">
      <path id="Path_1098" data-name="Path 1098" d="M391.154,225.955v5.569a1.35,1.35,0,0,1-1.345,1.344H358.691a1.349,1.349,0,0,1-1.344-1.344v-.549h28.1l-6.67-6.752-2.15,2.148a.761.761,0,0,1-1.258-.3l-4.3-12.9a.759.759,0,0,1,.961-.961l12.9,4.3a.759.759,0,0,1,.3,1.257l-2.15,2.15,5.92,5.993V192.347a2.677,2.677,0,0,0-2.68-2.68H357.347a2.683,2.683,0,0,0-2.68,2.68v39.186a4.033,4.033,0,0,0,4.024,4.024h31.118a4.033,4.033,0,0,0,4.025-4.024v-5.578Zm-22.169-9.376-3.224,3.224a.76.76,0,0,1-1.075-1.075l3.224-3.224a.76.76,0,1,1,1.075,1.075Zm5.373-7.523,3.224-3.223a.76.76,0,0,1,1.075,1.075l-3.224,3.223a.76.76,0,0,1-1.075-1.075Zm-3.446-5.358a.759.759,0,1,1,1.519,0v4.56a.759.759,0,1,1-1.519,0Zm-6.226,2.134a.76.76,0,0,1,1.075,0l3.224,3.223a.76.76,0,1,1-1.075,1.075l-3.224-3.224A.76.76,0,0,1,364.686,205.833Zm-2.133,6.225h4.56a.76.76,0,1,1,0,1.52h-4.56a.76.76,0,0,1,0-1.52Z" transform="translate(-354.667 -189.667)" fill="#166bff"/>
      <path id="Path_1099" data-name="Path 1099" d="M423.75,216.821h-3.579v7.869h3.579a1.608,1.608,0,0,0,1.61-1.61v-4.65a1.609,1.609,0,0,0-1.61-1.61Zm0,0" transform="translate(-383.599 -201.661)" fill="#004dd4"/>
      <path id="Path_1100" data-name="Path 1100" d="M423.75,235.564h-3.579v7.869h3.579a1.609,1.609,0,0,0,1.61-1.61v-4.65a1.608,1.608,0,0,0-1.61-1.61Zm0,0" transform="translate(-383.599 -209.939)" fill="#004dd4"/>
      <path id="Path_1101" data-name="Path 1101" d="M423.75,198.079h-3.579v7.869h3.579a1.608,1.608,0,0,0,1.61-1.61v-4.65a1.609,1.609,0,0,0-1.61-1.61Zm0,0" transform="translate(-383.599 -193.382)" fill="#004dd4"/>
    </g>
    <g id="Group_903" data-name="Group 903" transform="translate(409.16 194.269)">
      <path id="Path_1102" data-name="Path 1102" d="M464.818,209.889a5.486,5.486,0,0,1-1.263,3.394,4.739,4.739,0,0,1-1.994,1.375,8.381,8.381,0,0,1-3.133.532H455.8v6.762h-4.236V204.563h6.861a6.663,6.663,0,0,1,4.706,1.561A4.946,4.946,0,0,1,464.818,209.889ZM455.8,211.97h2.625a1.941,1.941,0,0,0,2.081-2.068,2.109,2.109,0,0,0-.57-1.523,2,2,0,0,0-1.511-.594H455.8Z" transform="translate(-450.431 -203.324)" fill="#334565"/>
      <path id="Path_1103" data-name="Path 1103" d="M478.77,209.681v2.576q1.486-2.725,3.963-2.725v4.309h-1.041a3.075,3.075,0,0,0-2.191.694,3.271,3.271,0,0,0-.731,2.428V223.5h-4.236V209.681Z" transform="translate(-457.595 -204.875)" fill="#334565"/>
      <path id="Path_1104" data-name="Path 1104" d="M490.45,221.719a6.725,6.725,0,0,1-2.093-5.153,6.622,6.622,0,0,1,2.081-5.114,7.857,7.857,0,0,1,10.292,0,6.644,6.644,0,0,1,2.068,5.114,6.784,6.784,0,0,1-2.057,5.153,7.148,7.148,0,0,1-5.127,1.956A7.281,7.281,0,0,1,490.45,221.719Zm7.2-2.551a3.615,3.615,0,0,0,.843-2.576,3.5,3.5,0,0,0-.868-2.564,2.787,2.787,0,0,0-2.055-.879,2.749,2.749,0,0,0-2.044.879,4.245,4.245,0,0,0,.025,5.14,2.812,2.812,0,0,0,2.068.892A2.692,2.692,0,0,0,497.646,219.168Z" transform="translate(-461.907 -204.875)" fill="#334565"/>
      <path id="Path_1105" data-name="Path 1105" d="M516.5,225.419a2.286,2.286,0,1,1-.669-1.647A2.242,2.242,0,0,1,516.5,225.419Z" transform="translate(-469.24 -209.108)" fill="#334565"/>
      <path id="Path_1106" data-name="Path 1106" d="M522.018,213.808a3.55,3.55,0,0,1,1.386-2.836,5.357,5.357,0,0,1,3.543-1.152,4.715,4.715,0,0,1,3.356,1.127,4.457,4.457,0,0,1,1.324,3.108h-1.783a2.828,2.828,0,0,0-3.047-2.849,3.288,3.288,0,0,0-2.218.694,2.136,2.136,0,0,0-.8,1.673,2.044,2.044,0,0,0,.594,1.548,3.057,3.057,0,0,0,1.5.767q.9.2,1.957.471t1.958.581a3.071,3.071,0,0,1,1.5,1.115,3.387,3.387,0,0,1,.6,2.068,3.223,3.223,0,0,1-1.363,2.675,5.736,5.736,0,0,1-3.579,1.041,5.1,5.1,0,0,1-3.5-1.139,4.309,4.309,0,0,1-1.411-3.1H523.8a2.861,2.861,0,0,0,.892,2.056,3.247,3.247,0,0,0,2.316.792,3.668,3.668,0,0,0,2.292-.632,1.959,1.959,0,0,0,.817-1.622,2.064,2.064,0,0,0-.594-1.561,3.156,3.156,0,0,0-1.5-.78q-.9-.211-1.957-.483t-1.956-.57a3,3,0,0,1-2.093-3Z" transform="translate(-472.408 -204.964)" fill="#334565"/>
      <path id="Path_1107" data-name="Path 1107" d="M542.939,221.525h-1.734V203.2h1.734v10.849L548.388,208h2.5l-6.564,6.689,6.564,6.836h-2.378l-5.573-6.069Z" transform="translate(-478.393 -202.898)" fill="#334565"/>
      <path id="Path_1108" data-name="Path 1108" d="M560.328,204.039a1.25,1.25,0,0,1-.36.9,1.185,1.185,0,0,1-.892.372,1.276,1.276,0,1,1,0-2.551,1.19,1.19,0,0,1,.892.372A1.256,1.256,0,0,1,560.328,204.039Zm-2.155,17.351V207.866h1.733V221.39Z" transform="translate(-483.57 -202.763)" fill="#334565"/>
      <path id="Path_1109" data-name="Path 1109" d="M566.261,221.525V203.2h1.733v18.329Z" transform="translate(-486.209 -202.898)" fill="#334565"/>
      <path id="Path_1110" data-name="Path 1110" d="M574.18,221.525V203.2h1.733v18.329Z" transform="translate(-488.679 -202.898)" fill="#334565"/>
      <path id="Path_1111" data-name="Path 1111" d="M449.916,246.534h2.39a2.306,2.306,0,0,1,1.58.5,1.632,1.632,0,0,1,.558,1.277,1.478,1.478,0,0,1-1.281,1.473,1.678,1.678,0,0,1,1.435,1.667,1.582,1.582,0,0,1-.592,1.263,2.373,2.373,0,0,1-1.584.5h-2.505Zm.877.7v2.2h1.474a1.408,1.408,0,0,0,.949-.294,1,1,0,0,0,.342-.8,1.013,1.013,0,0,0-.342-.8,1.4,1.4,0,0,0-.949-.3Zm0,5.279h1.58a1.46,1.46,0,0,0,1-.319,1.1,1.1,0,0,0,.36-.872,1.065,1.065,0,0,0-.389-.872,1.59,1.59,0,0,0-1.036-.318h-1.513Z" transform="translate(-449.916 -216.417)" fill="#334565"/>
      <path id="Path_1112" data-name="Path 1112" d="M463.31,248.55h.877v5.288h-.877v-.848a1.827,1.827,0,0,1-1.724.934,2,2,0,0,1-1.464-.582,2.224,2.224,0,0,1-.588-1.653v-3.14h.867v3a1.712,1.712,0,0,0,.389,1.209,1.56,1.56,0,0,0,2.13,0,1.712,1.712,0,0,0,.389-1.209Z" transform="translate(-452.917 -217.046)" fill="#334565"/>
      <path id="Path_1113" data-name="Path 1113" d="M470.317,246.6a.576.576,0,0,1-.423.173.56.56,0,0,1-.419-.173.585.585,0,0,1-.169-.424.579.579,0,0,1,.173-.425.594.594,0,0,1,.837,0,.606.606,0,0,1,0,.848Zm-.866,6.309v-5.288h.877v5.288Z" transform="translate(-455.965 -216.12)" fill="#334565"/>
      <path id="Path_1114" data-name="Path 1114" d="M474.01,253v-7.129h.877V253Z" transform="translate(-457.432 -216.211)" fill="#334565"/>
      <path id="Path_1115" data-name="Path 1115" d="M478.722,252.315a2.8,2.8,0,0,1-.722-1.984,2.7,2.7,0,0,1,.718-1.955,2.4,2.4,0,0,1,1.806-.747,2.169,2.169,0,0,1,1.18.318,2.085,2.085,0,0,1,.766.828v-2.9h.886V253h-.886v-1.08a2.1,2.1,0,0,1-.766.844,2.148,2.148,0,0,1-1.18.322A2.362,2.362,0,0,1,478.722,252.315Zm3.222-.515a2.225,2.225,0,0,0,0-2.871,1.7,1.7,0,0,0-1.262-.539,1.729,1.729,0,0,0-1.262.52,1.905,1.905,0,0,0-.525,1.416,2.029,2.029,0,0,0,.53,1.455,1.718,1.718,0,0,0,2.519.019Z" transform="translate(-458.677 -216.211)" fill="#334565"/>
      <path id="Path_1116" data-name="Path 1116" d="M496.537,253.21h-.877v-2.524l-2.177-4.152h.964l1.647,3.343,1.638-3.343h.973l-2.167,4.152Z" transform="translate(-463.506 -216.417)" fill="#334565"/>
      <path id="Path_1117" data-name="Path 1117" d="M503.674,253.135a2.724,2.724,0,0,1-.727-1.975,2.665,2.665,0,0,1,.762-1.98,2.783,2.783,0,0,1,3.815,0,2.661,2.661,0,0,1,.76,1.975,2.606,2.606,0,0,1-.794,1.975,2.714,2.714,0,0,1-1.941.755A2.5,2.5,0,0,1,503.674,253.135Zm1.874.029a1.773,1.773,0,0,0,1.286-.535,1.98,1.98,0,0,0,.544-1.479,2.013,2.013,0,0,0-.52-1.474,1.711,1.711,0,0,0-1.267-.53,1.646,1.646,0,0,0-1.247.53,2.065,2.065,0,0,0-.5,1.479,2.118,2.118,0,0,0,.482,1.479A1.581,1.581,0,0,0,505.549,253.164Z" transform="translate(-466.459 -217.007)" fill="#334565"/>
      <path id="Path_1118" data-name="Path 1118" d="M517.125,248.55H518v5.288h-.877v-.848a1.829,1.829,0,0,1-1.724.934,2,2,0,0,1-1.464-.582,2.226,2.226,0,0,1-.587-1.653v-3.14h.866v3a1.712,1.712,0,0,0,.39,1.209,1.56,1.56,0,0,0,2.13,0,1.715,1.715,0,0,0,.389-1.209Z" transform="translate(-469.704 -217.046)" fill="#334565"/>
      <path id="Path_1119" data-name="Path 1119" d="M524.208,248.511v.9a1.647,1.647,0,0,1,1.609-.983v.914h-.231a1.39,1.39,0,0,0-1.026.352,1.694,1.694,0,0,0-.352,1.219v2.89h-.877v-5.288Z" transform="translate(-472.817 -217.007)" fill="#334565"/>
      <path id="Path_1120" data-name="Path 1120" d="M534.923,253.21v-6.676h3.757v.7H535.8V249.5h2.273v.694H535.8v3.015Z" transform="translate(-476.433 -216.417)" fill="#334565"/>
      <path id="Path_1121" data-name="Path 1121" d="M546.608,248.55h.877v5.288h-.877v-.848a1.828,1.828,0,0,1-1.724.934,2,2,0,0,1-1.464-.582,2.224,2.224,0,0,1-.588-1.653v-3.14h.867v3a1.712,1.712,0,0,0,.389,1.209,1.56,1.56,0,0,0,2.13,0,1.712,1.712,0,0,0,.389-1.209Z" transform="translate(-478.901 -217.046)" fill="#334565"/>
      <path id="Path_1122" data-name="Path 1122" d="M554.326,252.532h.722v.713h-.886a1.209,1.209,0,0,1-1.378-1.358v-3.218H552.1v-.712h.684v-1.31h.886v1.31h1.368v.712h-1.368v3.218a.7.7,0,0,0,.144.5A.711.711,0,0,0,554.326,252.532Z" transform="translate(-481.792 -216.452)" fill="#334565"/>
      <path id="Path_1123" data-name="Path 1123" d="M562.61,248.55h.877v5.288h-.877v-.848a1.828,1.828,0,0,1-1.724.934,2,2,0,0,1-1.464-.582,2.226,2.226,0,0,1-.587-1.653v-3.14h.867v3a1.712,1.712,0,0,0,.389,1.209,1.56,1.56,0,0,0,2.13,0,1.712,1.712,0,0,0,.389-1.209Z" transform="translate(-483.892 -217.046)" fill="#334565"/>
      <path id="Path_1124" data-name="Path 1124" d="M569.693,248.511v.9a1.647,1.647,0,0,1,1.609-.983v.914h-.231a1.388,1.388,0,0,0-1.026.352,1.694,1.694,0,0,0-.352,1.219v2.89h-.877v-5.288Z" transform="translate(-487.006 -217.007)" fill="#334565"/>
      <path id="Path_1125" data-name="Path 1125" d="M577.147,253.886a2.437,2.437,0,0,1-1.85-.751,2.769,2.769,0,0,1-.713-1.985,2.728,2.728,0,0,1,.722-1.98,2.747,2.747,0,0,1,3.723-.039,2.464,2.464,0,0,1,.7,1.806,3.31,3.31,0,0,1-.039.519h-4.21a1.818,1.818,0,0,0,.5,1.248,1.583,1.583,0,0,0,1.17.458,1.634,1.634,0,0,0,.91-.242,1.428,1.428,0,0,0,.544-.635h.944a2.424,2.424,0,0,1-.862,1.146A2.507,2.507,0,0,1,577.147,253.886Zm1.185-4.282a1.727,1.727,0,0,0-2.331-.01,1.791,1.791,0,0,0-.511,1.228h3.323A1.65,1.65,0,0,0,578.332,249.6Z" transform="translate(-488.805 -217.007)" fill="#334565"/>
    </g>
  </g>
</svg>
